<svg width="120" height="159" viewBox="0 0 120 159" fill="none" xmlns="http://www.w3.org/2000/svg">
<rect x="17" y="17" width="6" height="23" fill="white"/>
<rect x="27" y="17" width="10" height="23" fill="white"/>
<rect x="63" y="17" width="10" height="23" fill="white"/>
<rect x="42" y="17" width="5" height="23" fill="white"/>
<rect x="78" y="17" width="5" height="23" fill="white"/>
<rect x="88" y="17" width="5" height="23" fill="white"/>
<rect x="99" y="17" width="5" height="23" fill="white"/>
<rect x="52" y="17" width="5" height="23" fill="white"/>
<rect x="17" y="55" width="6" height="23" fill="white"/>
<rect x="27" y="55" width="10" height="23" fill="white"/>
<rect x="63" y="55" width="10" height="23" fill="white"/>
<rect x="42" y="55" width="5" height="23" fill="white"/>
<rect x="78" y="55" width="5" height="23" fill="white"/>
<rect x="88" y="55" width="5" height="23" fill="white"/>
<rect x="99" y="55" width="5" height="23" fill="white"/>
<rect x="52" y="55" width="5" height="23" fill="white"/>
<rect x="6" y="45" width="108" height="6" rx="3" fill="white"/>
<path d="M4 25.5V8.5C4 6.84315 5.34315 5.5 7 5.5H27" stroke="white" stroke-width="7"/>
<path d="M96 4L113 4C114.657 4 116 5.34315 116 7L116 27" stroke="white" stroke-width="7"/>
<path d="M4 70V87C4 88.6569 5.34315 90 7 90H27" stroke="white" stroke-width="7"/>
<path d="M96 91.5L113 91.5C114.657 91.5 116 90.1569 116 88.5L116 68.5" stroke="white" stroke-width="7"/>
<path d="M27 152.5H30.1875V119.688H27V152.5ZM32.4375 152.547H37.3125C40.8125 152.547 43.4844 151.297 45.3281 148.797C46.5781 147.141 47.2031 145.219 47.2031 143.031C47.1719 140.062 46.0469 137.734 43.8281 136.047C45.6406 134.703 46.7031 132.766 47.0156 130.234C47.0469 129.859 47.0625 129.484 47.0625 129.109C47.0625 126.297 46.0938 123.984 44.1562 122.172C42.3438 120.516 40.0156 119.688 37.1719 119.688H32.4375V122.594H36.8438C39.8438 122.594 41.9375 123.781 43.125 126.156C43.625 127.156 43.875 128.188 43.875 129.25C43.8125 132.781 41.8438 134.562 37.9688 134.594H32.4375V137.453H37.9688C41.4375 137.453 43.4219 138.844 43.9219 141.625C43.9844 142.031 44.0156 142.453 44.0156 142.891C44.0156 145.234 43.0625 147.031 41.1562 148.281C39.75 149.188 37.9531 149.641 35.7656 149.641H32.4375V152.547ZM50.6719 152.5H53.8594V119.688H50.6719V152.5ZM56.1094 152.547H60.9844C64.4844 152.547 67.1562 151.297 69 148.797C70.25 147.141 70.875 145.219 70.875 143.031C70.8438 140.062 69.7188 137.734 67.5 136.047C69.3125 134.703 70.375 132.766 70.6875 130.234C70.7188 129.859 70.7344 129.484 70.7344 129.109C70.7344 126.297 69.7656 123.984 67.8281 122.172C66.0156 120.516 63.6875 119.688 60.8438 119.688H56.1094V122.594H60.5156C63.5156 122.594 65.6094 123.781 66.7969 126.156C67.2969 127.156 67.5469 128.188 67.5469 129.25C67.4844 132.781 65.5156 134.562 61.6406 134.594H56.1094V137.453H61.6406C65.1094 137.453 67.0938 138.844 67.5938 141.625C67.6562 142.031 67.6875 142.453 67.6875 142.891C67.6875 145.234 66.7344 147.031 64.8281 148.281C63.4219 149.188 61.625 149.641 59.4375 149.641H56.1094V152.547ZM74.5312 152.5V119.688H77.7188V152.5H74.5312ZM79.9219 152.5V149.359C83.4219 149.359 85.8281 149 87.1406 148.281C88.7969 147.312 89.6406 145.641 89.6719 143.266V128.922C89.6719 125.922 88.2969 124.062 85.5469 123.344C84.2969 123 82.4219 122.828 79.9219 122.828V119.688C85.7344 119.688 89.5469 120.938 91.3594 123.438C92.3906 124.875 92.9062 126.703 92.9062 128.922V143.266C92.9062 147.984 90.75 150.875 86.4375 151.938C84.8438 152.312 82.6719 152.5 79.9219 152.5Z" fill="white"/>
</svg>
